# xmcd
# 
# Track frame offsets:
#     150
#     16976
#     36488
#     46629
#     63945
#     73930
#     84510
#     105433
#     122457
#     140521
#     158893
# 
# Disc length: 2456
# 
# Revision: 1
# Processed by: cddbd v1.5.2PL0 Copyright (c) Steve Scherf et al.
# Submitted via: fre:ac v1.0.27
# 
DISCID=8b09960b
DTITLE=Drunken Prayer - Into the Missionfield
DYEAR=2012
DGENRE=American Folk
TTITLE0=Brazil
TTITLE1=Ain't No Grave
TTITLE2=Always Sad
TTITLE3=Maryjane
TTITLE4=Take a Walk
TTITLE5=Saw It With My Own Two Eyes
TTITLE6=The Missionfield
TTITLE7=You Walk As If You Have Somewhere To Go
TTITLE8=Balloons
TTITLE9=The Beachcomber
TTITLE10=Forever Tends to Forget
EXTD=
EXTT0=
EXTT1=
EXTT2=
EXTT3=
EXTT4=
EXTT5=
EXTT6=
EXTT7=
EXTT8=
EXTT9=
EXTT10=
PLAYORDER=
